<?xml version="1.0"?>
<svg xmlns="http://www.w3.org/2000/svg" height="512px" viewBox="-25 0 511 511.99969" width="512px"><path d="m110.5 312c-5.519531 0-10 4.480469-10 10s4.480469 10 10 10 10-4.480469 10-10-4.480469-10-10-10zm0 0" fill="#333333"/><path d="m20.5 203.515625v98.324219c0 53.203125 9.785156 105.242187 29.085938 154.738281-17.121094 7.890625-29.085938 25.195313-29.085938 45.421875 0 5.523438 4.476562 10 10 10h261.109375c47.65625 0 90.035156-31.417969 104.035156-76.722656l28.195313-28.195313c47.226562-47.226562 51.382812-122.175781 9.667968-174.335937-12.441406-15.5625-21.082031-34.113282-24.992187-53.648438-11.679687-58.417968 21.570313-97.308594 22.945313-100.460937 9.171874-13.761719 5.441406-32.421875-8.34375-41.613281-13.757813-9.109376-32.40625-5.375-41.574219 8.332031-1.445313 3.378906-48.9375 60.160156-31.859375 145.515625 5.773437 28.878906 18.554687 56.316406 36.964844 79.34375 20.019531 25.035156 20.292968 60.066406 2.382812 85.367187-11.199219-22.046875-29.964844-40.5625-53.28125-52.121093-84.933594-42.113282-116.140625-53.609376-124.6875-104.90625l-1.507812-9.03125c7.164062-13.480469 10.945312-28.445313 10.945312-43.523438v-136c0-3.972656-2.355469-7.570312-5.996094-9.160156-3.640625-1.59375-7.878906-.8789065-10.792968 1.820312l-53.953126 49.902344c-12.507812-4.351562-25.679687-6.5625-39.257812-6.5625s-26.753906 2.210938-39.253906 6.5625l-53.957032-49.902344c-2.917968-2.6992185-7.15625-3.414062-10.796874-1.820312-3.640626 1.59375-5.992188 5.1875-5.992188 9.160156v136c0 20.835938 6.90625 40.640625 20 57.515625zm21.703125 288.484375c4.035156-11.429688 15.027344-20 28.296875-20 13.316406 0 24.277344 8.613281 28.296875 20zm80 0c4.015625-11.382812 14.972656-20 28.296875-20 13.179688 0 24.234375 8.488281 28.296875 20zm280.066406-234.273438c-16.421875-20.542968-27.824219-45.015624-32.976562-70.777343-15.21875-76.089844 27.5-127.269531 28.878906-130.480469 3.0625-4.574219 9.300781-5.820312 13.878906-2.789062 4.582031 3.058593 5.824219 9.277343 2.765625 13.867187-1.382812 3.199219-39.433594 47.839844-25.914062 115.476563 4.535156 22.65625 14.558594 44.167968 28.988281 62.210937 35.339844 44.195313 31.816406 107.695313-8.191406 147.703125l-9.21875 9.222656c-.007813-.777344-.003907-1.550781-.027344-2.332031-.230469-7.671875-1.335937-15.292969-3.265625-22.738281 31.3125-32.980469 33.503906-83.824219 5.082031-119.363282zm-75.402343 63.65625c23.8125 11.800782 41.875 32.167969 49.5625 55.875 2.4375 7.523438 3.796874 15.320313 4.035156 23.160157.261718 9.148437-.839844 18.179687-3.28125 26.84375-10.738282 38.117187-45.925782 64.738281-85.574219 64.738281h-91.085937c.539062-13.265625 9.71875-24.625 22.703124-27.867188l45.941407-11.488281c3.445312-.863281 6.171875-3.488281 7.171875-6.898437.996094-3.410156.109375-7.089844-2.332032-9.671875-8.710937-9.222657-13.507812-21.324219-13.507812-34.074219 0-21.15625 13.394531-40.109375 33.332031-47.160156 5.207031-1.84375 7.9375-7.554688 6.09375-12.761719-1.839843-5.207031-7.554687-7.933594-12.761719-6.09375-27.910156 9.871094-46.664062 36.402344-46.664062 66.015625 0 12.402344 3.242188 24.375 9.3125 34.867188l-31.4375 7.859374c-13.492188 3.375-24.515625 12.011719-31.125 23.394532-4.660156-5.046875-10.015625-8.859375-15.839844-11.542969 19.300782-49.496094 29.085938-101.53125 29.085938-154.738281v-19.839844c0-5.519531-4.476563-10-10-10-5.523438 0-10 4.480469-10 10v19.839844c0 51.683594-9.6875 102.207031-28.785156 150.191406-.40625-.011719-.808594-.03125-1.214844-.03125-10.964844 0-21.386719 3.515625-30 10.003906v-100.003906c0-5.519531-4.476563-10-10-10-5.519532 0-10 4.480469-10 10v100.003906c-8.609375-6.488281-19.035156-10.003906-30-10.003906-.402344 0-.804688.019531-1.210938.03125-19.097656-47.984375-28.789062-98.507812-28.789062-150.191406v-78.621094c19.472656 14.667969 43.957031 22.78125 70 22.78125 32.242187 0 62.230468-12.699219 82.84375-34.171875 12.835937 53.863281 52.296875 69.265625 133.527344 109.554687zm-126.367188-232.832031c-8.214844-10.648437-18.714844-19.863281-31.027344-26.980469l31.027344-28.699218zm0 57.449219c0 12.945312-3.371094 25.292969-10.023438 36.699219-15.550781 26.710937-46.195312 43.300781-79.976562 43.300781-28.78125 0-55.144531-11.808594-72.324219-32.398438-11.898437-14.25-18.121093-31.34375-17.648437-49.636718 1.179687-41.757813 39.78125-77.964844 89.972656-77.964844 50.46875 0 90 36.714844 90 80zm-148.976562-84.429688c-12.136719 7.007813-22.679688 16.148438-31.023438 26.929688v-55.628906zm0 0" fill="#333333"/><path d="m147.570312 143.074219 20-20c3.90625-3.90625 3.90625-10.238281 0-14.144531-3.90625-3.902344-10.238281-3.902344-14.144531 0l-20 20c-3.902343 3.90625-3.902343 10.238281 0 14.144531 3.910157 3.902343 10.238281 3.902343 14.144531 0zm0 0" fill="#333333"/><path d="m67.570312 108.929688c-3.90625-3.902344-10.238281-3.902344-14.140624 0-3.90625 3.90625-3.90625 10.238281 0 14.144531l19.996093 20c3.90625 3.902343 10.238281 3.902343 14.144531 0 3.90625-3.90625 3.90625-10.238281 0-14.144531zm0 0" fill="#333333"/><path d="m80.5 176c0-5.519531-4.476562-10-10-10s-10 4.480469-10 10c0 16.542969 13.457031 30 30 30 7.675781 0 14.6875-2.902344 20-7.660156 5.3125 4.757812 12.320312 7.660156 20 7.660156 16.542969 0 30-13.457031 30-30 0-5.519531-4.476562-10-10-10s-10 4.480469-10 10c0 5.515625-4.488281 10-10 10-5.515625 0-10-4.484375-10-10 0-5.519531-4.476562-10-10-10s-10 4.480469-10 10c0 5.515625-4.488281 10-10 10-5.515625 0-10-4.484375-10-10zm0 0" fill="#333333"/></svg>
